<svg xmlns="http://www.w3.org/2000/svg" viewBox="0 0 600 900" width="600" height="900" font-family="Georgia, 'Times New Roman', serif">
  <defs>
    <linearGradient id="bg" x1="0" y1="0" x2="0" y2="1">
      <stop offset="0" stop-color="#231a10"/><stop offset="1" stop-color="#100b05"/>
    </linearGradient>
    <radialGradient id="glow" cx="50%" cy="36%" r="52%">
      <stop offset="0" stop-color="#dbbb8c" stop-opacity=".26"/>
      <stop offset="1" stop-color="#dbbb8c" stop-opacity="0"/>
    </radialGradient>
  </defs>
  <rect width="600" height="900" fill="url(#bg)"/>
  <rect width="600" height="900" fill="url(#glow)"/>
  <rect x="26" y="26" width="548" height="848" fill="none" stroke="#d9b46a" stroke-opacity=".5" stroke-width="2"/>
  <rect x="38" y="38" width="524" height="824" fill="none" stroke="#d9b46a" stroke-opacity=".22" stroke-width="1"/>
  <path d="M38 29 L47 38 L38 47 L29 38 Z" fill="#d9b46a" opacity=".75"/>
  <path d="M562 29 L571 38 L562 47 L553 38 Z" fill="#d9b46a" opacity=".75"/>
  <path d="M38 853 L47 862 L38 871 L29 862 Z" fill="#d9b46a" opacity=".75"/>
  <path d="M562 853 L571 862 L562 871 L553 862 Z" fill="#d9b46a" opacity=".75"/>
  <text x="300" y="118" fill="#d9b46a" fill-opacity=".8" font-size="21" letter-spacing="7" text-anchor="middle">РУССКАЯ ЛИТЕРАТУРА</text>
  <g opacity=".92">
    <path d="M300 452 L300 330 M300 372 L252 330 M300 350 L346 306" stroke="#dbbb8c" stroke-width="6" stroke-linecap="round" fill="none"/>
    <circle cx="300" cy="266" r="74" fill="none" stroke="#dbbb8c" stroke-width="5"/>
    <circle cx="232" cy="316" r="34" fill="none" stroke="#dbbb8c" stroke-width="4" opacity=".7"/>
    <circle cx="368" cy="312" r="34" fill="none" stroke="#dbbb8c" stroke-width="4" opacity=".7"/></g>
  <text x="300" y="626.6" fill="#f5eee2" font-size="62" font-weight="600" text-anchor="middle">Отцы и</text>
  <text x="300" y="697.3" fill="#f5eee2" font-size="62" font-weight="600" text-anchor="middle">дети</text>
  <path d="M214 742 L284 742 M316 742 L386 742" stroke="#d9b46a" stroke-opacity=".6" stroke-width="1.5"/>
  <path d="M300 733 L309 742 L300 751 L291 742 Z" fill="#d9b46a" opacity=".85"/>
  <text x="300" y="792" fill="#d9b46a" font-size="29" letter-spacing="3" text-anchor="middle">Иван Тургенев</text>
  <text x="300" y="850" fill="#f5eee2" fill-opacity=".42" font-size="17" letter-spacing="9" text-anchor="middle">WAYBOOKS</text>
</svg>
